<svg width="21" height="20" viewBox="0 0 21 20" fill="none" xmlns="http://www.w3.org/2000/svg">
<g clip-path="url(#clip0_61_2434)">
<path d="M19.674 9.71009C19.674 8.93122 19.6121 8.36285 19.4782 7.77344H10.7725V11.2889H15.8825C15.7796 12.1625 15.2232 13.4782 13.9869 14.3623L13.9695 14.48L16.7221 16.6585L16.9128 16.6779C18.6643 15.0254 19.674 12.594 19.674 9.71009Z" fill="#4285F4"/>
<path d="M10.7726 18.9724C13.2761 18.9724 15.3779 18.1303 16.913 16.6778L13.987 14.3622C13.2041 14.9201 12.1532 15.3095 10.7726 15.3095C8.32061 15.3095 6.23948 13.6571 5.49762 11.373L5.38888 11.3825L2.52669 13.6454L2.48926 13.7517C4.01404 16.8462 7.14606 18.9724 10.7726 18.9724Z" fill="#34A853"/>
<path d="M5.4974 11.3731C5.30165 10.7837 5.18836 10.1521 5.18836 9.49955C5.18836 8.84693 5.30165 8.21543 5.4871 7.62602L5.48191 7.50049L2.58385 5.20117L2.48903 5.24725C1.8606 6.53136 1.5 7.97337 1.5 9.49955C1.5 11.0257 1.8606 12.4677 2.48903 13.7518L5.4974 11.3731Z" fill="#FBBC05"/>
<path d="M10.7726 3.69016C12.5138 3.69016 13.6882 4.45851 14.3579 5.1006L16.9748 2.49029C15.3676 0.964108 13.2761 0.0273438 10.7726 0.0273438C7.14606 0.0273438 4.01404 2.15346 2.48926 5.2479L5.48732 7.62667C6.23949 5.34267 8.32061 3.69016 10.7726 3.69016Z" fill="#EB4335"/>
</g>
<defs>
<clipPath id="clip0_61_2434">
<rect x="1.5" width="18.1739" height="19" rx="9.08696" fill="white"/>
</clipPath>
</defs>
</svg>
